<?xml version="1.0" encoding="utf-8"?>
<!-- Generator: Adobe Illustrator 15.0.0, SVG Export Plug-In  -->
<!DOCTYPE svg PUBLIC "-//W3C//DTD SVG 1.1//EN" "http://www.w3.org/Graphics/SVG/1.1/DTD/svg11.dtd" [
	<!ENTITY ns_flows "http://ns.adobe.com/Flows/1.0/">
]>
<svg version="1.1"
	 xmlns="http://www.w3.org/2000/svg" xmlns:xlink="http://www.w3.org/1999/xlink" xmlns:a="http://ns.adobe.com/AdobeSVGViewerExtensions/3.0/"
	 x="0px" y="0px" width="361px" height="271px" viewBox="-75.082 -46.639 361 271"
	 overflow="visible" enable-background="new -75.082 -46.639 361 271" xml:space="preserve">
<defs>
</defs>
<path fill="none" d="M115.768,46.812c-0.971-0.122-1.955-0.184-2.925-0.184c-11.785,0.001-21.774,8.831-23.233,20.54
	c-1.602,12.826,7.525,24.563,20.352,26.165c0.971,0.122,1.957,0.184,2.929,0.184c11.785,0,21.78-8.83,23.241-20.54
	c0.773-6.199-0.92-12.339-4.771-17.289C127.506,50.738,121.971,47.586,115.768,46.812z"/>
<path fill="#CC2929" d="M110.959,92.333c12.853,1.605,24.566-7.512,26.17-20.356c1.604-12.846-7.51-24.561-20.361-26.165
	c-12.854-1.606-24.557,7.511-26.16,20.356C89.004,79.013,98.104,90.729,110.959,92.333z"/>
<path d="M107.603,7.679c-0.81-4.991-5.517-8.371-10.509-7.559c-4.984,0.814-8.367,5.517-7.551,10.504
	c0.529,3.268,2.729,5.842,5.588,7.006c0.621,5.271,1.438,12.087,1.905,15.44l8.57-1.194c-0.449-3.229-1.257-9.958-1.872-15.192
	C106.564,14.738,108.194,11.295,107.603,7.679z"/>
<path d="M63.55,129.331c1.895,2.977,3.819,5.886,5.743,8.697c6.946-3.868,15.594-7.201,26.858-5.794
	c7.302,0.912,17.468,5.122,24.983,12.102c2.592-2.294,5.207-4.675,7.809-7.136c-7.393-6.958-17.928-13.497-31.406-15.18
	C83.943,120.322,72.546,124.229,63.55,129.331z"/>
<path d="M74.309,143.027c2.23,3.126,4.384,6.067,6.395,8.802c3.697-2.831,8.558-3.395,13.075-2.831
	c4.479,0.561,10.237,2.886,12.299,5.98c2.652-2.189,5.496-4.554,8.466-7.082c-4.337-3.718-10.492-8.118-19.465-9.238
	C86.208,137.551,79.51,140.436,74.309,143.027z"/>
<path d="M99.432,159.646c-0.086-0.316-0.208-0.616-0.337-0.914c-0.007-0.003-0.011-0.005-0.015-0.008
	c0.002-0.003,0.004-0.005,0.008-0.008c-0.961-2.213-3.047-3.897-5.668-4.224c-2.488-0.312-4.82,0.672-6.313,2.401
	c-0.224,0.26-0.423,0.536-0.606,0.826c-0.185,0.294-0.334,0.611-0.472,0.935c-0.245,0.57-0.442,1.17-0.524,1.816
	c-0.166,1.334,0.087,2.62,0.637,3.76c0.452,0.943,1.113,1.775,1.943,2.439c1.006,0.806,2.24,1.367,3.627,1.541
	c0.764,0.095,1.503,0.038,2.22-0.095c2.246-0.415,4.137-1.858,5.081-3.883c0.293-0.623,0.521-1.282,0.613-2
	C99.734,161.34,99.654,160.469,99.432,159.646z"/>
<path d="M208.625,70.346c-1.404-5.677-14.726-7.706-35.342-3.704c-4.79,0.931-9.097,2.25-12.89,3.728
	c-5.528-23.49-25.117-42.233-50.428-45.395c-2.488-0.311-4.963-0.463-7.41-0.463c-29.519,0-55.177,22.041-58.928,52.071
	c-0.078,0.625-0.107,1.28-0.143,1.932c-0.107,1.897-0.035,3.896,0.187,5.97c-4.144,0.189-8.73,0.752-13.621,1.917
	C10.07,91.164-0.975,98.352,0.067,103.975c1.043,5.624,16.992,10.295,30.669,6.282c5.413-1.588,11.691-4.826,17.424-8.3
	c0.353,0.936,0.717,1.872,1.102,2.811c0.055,0.129,0.106,0.259,0.161,0.389c1.251,3.025,2.671,6.057,4.198,9.074
	c1.68,3.323,3.496,6.623,5.407,9.874c8.756-5.05,19.4-8.515,31.574-8.515c2.658,0,5.391,0.164,8.192,0.516
	c15.504,1.936,27.574,8.81,36.33,17.188c2.802-2.845,5.527-5.757,8.093-8.724c3.067-3.548,5.914-7.164,8.413-10.808
	c0.11-0.158,0.216-0.315,0.321-0.475c0.802-1.183,1.572-2.367,2.297-3.555c0.767-1.263,1.472-2.513,2.138-3.76
	c2.741-5.113,4.604-10.066,5.179-14.663c0.112-0.899,0.179-1.792,0.233-2.683c7.146,0.916,14.873,1.376,20.918,0.521
	C197.148,87.108,210.029,76.024,208.625,70.346z M144.718,74.049c-2.024,16.218-15.887,28.122-31.828,28.122
	c-1.323,0-2.658-0.082-4.003-0.25c-17.56-2.192-30.059-18.264-27.867-35.825c2.023-16.217,15.885-28.121,31.823-28.122
	c1.32,0,2.654,0.082,3.998,0.25C134.407,40.416,146.911,56.488,144.718,74.049z"/>
</svg>
